<svg width="108" height="80" viewBox="0 0 108 80" fill="none" xmlns="http://www.w3.org/2000/svg">
<path d="M12.608 64.512C9.96267 64.512 8 63.7867 6.72 62.336C5.44 60.8853 4.8 58.9653 4.8 56.576V16.64H9.472V56C9.472 57.408 9.77067 58.4747 10.368 59.2C10.9653 59.9253 11.9467 60.288 13.312 60.288C13.952 60.288 14.5707 60.2027 15.168 60.032C15.7653 59.8187 16.2347 59.6053 16.576 59.392L17.856 62.912C17.2587 63.424 16.4693 63.808 15.488 64.064C14.5493 64.3627 13.5893 64.512 12.608 64.512ZM25.0015 64V60.032H35.1775V24.96L25.8975 31.232L23.5935 27.84L37.2895 18.56H39.9775V60.032H49.8335V64H25.0015ZM70.3525 64.512C66.3845 64.512 63.3125 63.7013 61.1365 62.08C58.9605 60.416 57.7018 58.0693 57.3605 55.04L61.4565 54.08C61.7552 56.3413 62.6085 58.0053 64.0165 59.072C65.4672 60.1387 67.5792 60.672 70.3525 60.672C72.6992 60.672 74.4698 60.2027 75.6645 59.264C76.9018 58.2827 77.5205 57.024 77.5205 55.488C77.5205 54.0373 76.9018 52.9707 75.6645 52.288C74.4272 51.5627 72.4858 50.944 69.8405 50.432C67.6218 50.0053 65.7232 49.472 64.1445 48.832C62.5658 48.1493 61.3498 47.2107 60.4965 46.016C59.6432 44.8213 59.2165 43.2213 59.2165 41.216C59.2165 39.424 59.7072 37.8027 60.6885 36.352C61.6698 34.9013 63.0138 33.7707 64.7205 32.96C66.4698 32.1067 68.4325 31.68 70.6085 31.68C73.5952 31.68 76.0272 32.4053 77.9045 33.856C79.8245 35.264 80.9978 37.2267 81.4245 39.744L77.4565 40.768C76.8165 37.2693 74.5125 35.52 70.5445 35.52C68.4965 35.52 66.8538 36.032 65.6165 37.056C64.4218 38.0373 63.8245 39.3813 63.8245 41.088C63.8245 42.496 64.3578 43.6267 65.4245 44.48C66.4912 45.2907 68.4112 45.9947 71.1845 46.592C73.4458 47.0613 75.3872 47.616 77.0085 48.256C78.6298 48.8533 79.8672 49.6853 80.7205 50.752C81.6165 51.8187 82.0858 53.2907 82.1285 55.168C82.1285 56.96 81.6378 58.56 80.6565 59.968C79.6752 61.376 78.2885 62.4853 76.4965 63.296C74.7472 64.1067 72.6992 64.512 70.3525 64.512ZM100.521 64.512C96.8943 64.512 94.1637 63.552 92.329 61.632C90.4943 59.6693 89.5983 57.0667 89.641 53.824L89.833 36.16H84.201V32.192H89.897L89.961 25.536H94.633L94.569 32.192H105.641V36.16H94.505L94.313 53.504C94.313 55.552 94.825 57.1947 95.849 58.432C96.9157 59.6693 98.5583 60.288 100.777 60.288C101.758 60.288 102.676 60.1813 103.529 59.968C104.382 59.712 105.278 59.2213 106.217 58.496L107.753 62.208C106.814 63.0187 105.705 63.616 104.425 64C103.145 64.3413 101.844 64.512 100.521 64.512Z" fill="#363636"/>
</svg>
