<svg width="80" height="80" viewBox="0 0 80 80" fill="none" xmlns="http://www.w3.org/2000/svg">
<rect width="80" height="80" fill="#7DCBE4"/>
<path d="M26.808 63.872C24.1627 63.872 22.2 63.1467 20.92 61.696C19.64 60.2453 19 58.3253 19 55.936V16H23.672V55.36C23.672 56.768 23.9707 57.8347 24.568 58.56C25.1653 59.2853 26.1467 59.648 27.512 59.648C28.152 59.648 28.7707 59.5627 29.368 59.392C29.9653 59.1787 30.4347 58.9653 30.776 58.752L32.056 62.272C31.4587 62.784 30.6693 63.168 29.688 63.424C28.7493 63.7227 27.7893 63.872 26.808 63.872Z" fill="#363636"/>
<path d="M39.2015 63.36V59.392H49.3775V24.32L40.0975 30.592L37.7935 27.2L51.4895 17.92H54.1775V59.392H64.0335V63.36H39.2015Z" fill="#363636"/>
</svg>
